PathFileType	4	(X/Y/Z)	Run_200 02
DataRate	CameraRate	NumFrames	NumMarkers	Units	OrigDataRate	OrigDataStartFrame	OrigNumFrames
100	100	7	42	mm	100	95	128
Frame#	Time	LASI			RASI			LPSI			RPSI			RTH1			RTH2			RTH3			LTH1			LTH2			LTH3			RTB1			RTB2			RTB3			LTB1			LTB2			LTB3			RCAL			RTOE			RMT5			LCAL			LTOE			LMT5			LACR			RACR			CLAV			C7			RUA1			RUA2			RUA3			RLEL			RMEL			LUA1			LUA2			LUA3			LLEL			LMEL			RFAsuperior			RFAradius			RFAulna			LFAsuperior			LFAradius			LFAulna			
		X1	Y1	Z1	X2	Y2	Z2	X3	Y3	Z3	X4	Y4	Z4	X5	Y5	Z5	X6	Y6	Z6	X7	Y7	Z7	X8	Y8	Z8	X9	Y9	Z9	X10	Y10	Z10	X11	Y11	Z11	X12	Y12	Z12	X13	Y13	Z13	X14	Y14	Z14	X15	Y15	Z15	X16	Y16	Z16	X17	Y17	Z17	X18	Y18	Z18	X19	Y19	Z19	X20	Y20	Z20	X21	Y21	Z21	X22	Y22	Z22	X23	Y23	Z23	X24	Y24	Z24	X25	Y25	Z25	X26	Y26	Z26	X27	Y27	Z27	X28	Y28	Z28	X29	Y29	Z29	X30	Y30	Z30	X31	Y31	Z31	X32	Y32	Z32	X33	Y33	Z33	X34	Y34	Z34	X35	Y35	Z35	X36	Y36	Z36	X37	Y37	Z37	X38	Y38	Z38	X39	Y39	Z39	X40	Y40	Z40	X41	Y41	Z41	X42	Y42	Z42	

92	2.05	924.251701	966.1914379999999	-413.24136	927.368299	983.159815	-172.032795	761.762334	1009.616602	-341.011754	759.46532	1015.39881	-242.980981	881.154035	741.106222	-114.110798	941.519178	659.161664	-132.468112	882.976219	564.5994009999999	-147.733302	934.846201	776.950517	-453.410079	1026.588818	701.121051	-440.392073	1011.315465	585.739627	-422.920395	872.550671	346.065981	-222.376652	815.94741	284.189493	-177.03913	783.148928	185.114148	-245.867311	1005.187371	410.16825	-356.467874	909.1911679999999	395.847248	-418.634578	847.69075	298.400229	-352.953124	641.4662939999999	111.762853	-263.28192	863.319588	67.57680499999999	-271.066687	809.6251130000001	50.13765	-170.112748	692.926229	298.66278	-339.58627	805.9476540000001	111.250195	-338.246226	758.658458	133.545053	-437.259059	911.131159	1460.142628	-445.03071	934.392662	1443.228232	-144.426392	1005.209474	1373.877925	-285.030965	877.714201	1485.883388	-287.641909	908.359362	1334.495137	-44.711536	839.076267	1275.55031	-43.533021	889.025093	1218.484991	7.828228	870.56351	1156.033706	43.766568	822.887282	1129.670306	-11.639174	824.539284	1365.675661	-524.181184	765.368756	1318.430808	-482.765783	782.793351	1280.020028	-561.336751	737.6607289999999	1208.251474	-587.913191	713.862609	1184.689991	-521.801292	973.948369	1123.481763	-0.142952	1058.636175	1098.671128	-108.197753	1040.972543	1036.804093	-76.11028899999999	852.670804	1176.409406	-562.660814	945.295101	1099.941638	-483.19165	925.723564	1078.089601	-546.44092	
93	2.06	925.223932	970.832146	-412.414542	927.1112450000001	985.980629	-171.251822	762.15162	1014.662875	-340.993744	759.516994	1019.388473	-243.055026	873.13641	742.957486	-115.551635	930.694648	659.118292	-133.841204	868.577807	566.62075	-148.850791	938.826506	784.383884	-454.67977	1031.755328	711.104786	-440.414678	1019.04873	594.8953760000001	-423.48848	854.283365	347.451668	-222.736181	796.854351	286.324126	-177.426324	763.918811	186.960972	-245.922648	1020.365803	417.216807	-356.78767	924.431664	397.780925	-418.172401	870.259236	295.521153	-352.837804	622.322876	114.225561	-263.182812	843.45914	67.854192	-271.217359	789.561815	50.021996	-170.462611	714.920529	284.582213	-339.463263	842.416288	107.145503	-337.349722	793.707494	124.631163	-436.319817	909.985992	1463.702197	-446.206092	936.809272	1448.487201	-146.256491	1005.963666	1378.34036	-287.227729	878.598977	1490.20341	-288.79439	913.1360120000001	1340.549572	-45.629674	844.967833	1281.475448	-41.053903	896.616979	1223.926082	7.359392	879.289805	1161.34971	43.808565	831.197449	1134.137947	-11.131515	820.691765	1371.347995	-524.19926	762.096648	1325.196871	-480.622641	776.236881	1287.030723	-560.35732	729.136607	1216.182357	-586.057397	706.1928339999999	1193.155478	-519.26767	982.688262	1131.905899	-1.571133	1066.543439	1110.167787	-110.63598	1050.964843	1047.551238	-79.314004	844.025616	1182.84406	-563.4023539999999	936.628192	1103.94141	-484.229137	915.349457	1083.121391	-547.695759	
94	2.07	926.2755069999999	975.706107	-411.699704	926.458245	988.273415	-170.582284	762.8192749999999	1020.063971	-341.126712	759.807142	1023.56632	-243.293222	865.544541	745.368771	-117.094078	920.286196	659.752142	-135.626073	854.484896	569.3821390000001	-150.066068	942.623323	792.213003	-455.917089	1036.39199	720.93045	-440.54794	1025.5281	603.848254	-423.960903	836.160768	349.887587	-222.927824	777.938204	289.483111	-177.7549	745.103343	189.418447	-245.788958	1034.134967	424.113223	-356.958816	939.020186	398.833545	-417.807131	892.987229	292.188205	-352.549669	603.762793	117.934695	-263.222872	823.619597	68.071654	-271.583424	769.381845	50.074264	-170.650487	738.195985	269.287778	-338.984785	879.630139	103.057241	-336.51801	829.6956719999999	115.65192	-435.175555	908.867385	1467.444369	-447.40693	939.362894	1454.024197	-148.152943	1006.970072	1382.907718	-289.473396	879.566644	1494.557013	-289.886038	917.226191	1347.021215	-46.640892	850.61424	1287.982685	-39.432021	903.695874	1229.91394	6.692232	887.248291	1167.146801	43.628549	838.853778	1139.260789	-10.953058	816.795259	1377.400736	-524.208299	758.738473	1332.290292	-478.706382	769.704695	1294.541885	-559.428085	720.686521	1224.654314	-584.273384	698.5305519999999	1202.193984	-516.779812	990.700977	1140.60254	-2.889707	1073.821221	1121.9817	-112.74561	1060.131279	1058.655721	-82.286682	835.39197	1189.985983	-564.5998970000001	929.163365	1109.807903	-486.324066	905.247483	1088.67194	-549.213359	
95	2.08	927.282958	980.708276	-411.219173	925.720951	990.436058	-170.163876	763.7577669999999	1025.672908	-341.83327	760.329876	1027.873151	-243.735919	858.478962	748.259633	-118.639421	910.410268	661.081446	-137.537788	840.8716480000001	572.823046	-151.197652	946.031414	800.23934	-457.069267	1040.36561	730.452285	-440.852227	1030.706168	612.397577	-424.240197	818.30399	353.306904	-222.771873	759.293457	293.656613	-177.966784	726.772522	192.591083	-245.464526	1046.58005	430.673145	-356.962456	953.1049410000001	398.844332	-417.558054	915.848738	288.498533	-352.086008	585.933183	122.915631	-263.489701	803.928818	68.13180699999999	-272.132763	749.15558	50.280728	-170.71339	762.894738	253.068274	-338.204065	917.919773	99.366693	-335.855321	866.598295	107.002235	-433.948482	907.756273	1471.414912	-448.563433	941.940395	1459.731036	-150.099453	1008.11599	1387.53938	-291.785711	880.428539	1498.784486	-290.950301	920.850415	1353.654735	-47.744089	855.868163	1294.711574	-38.495534	910.183504	1236.334826	5.936093	894.367181	1173.283315	43.287907	845.834142	1144.831426	-11.013052	812.885816	1383.816047	-524.08905	755.475491	1339.487667	-477.003631	763.466704	1302.364153	-558.557223	712.567967	1233.421433	-582.503035	691.208975	1211.538962	-514.318906	998.00059	1149.457674	-4.097422	1080.410979	1133.819784	-114.55779	1068.398231	1069.84064	-85.126689	827.003199	1197.473931	-566.1106140000001	922.896162	1117.15562	-489.435422	895.602547	1094.34339	-550.9571989999999	
96	2.09	928.291174	985.822625	-410.960697	925.326403	992.819573	-170.03522	764.877568	1031.431202	-343.013634	761.033746	1032.309777	-244.305007	851.782808	751.55767	-120.119332	900.924982	663.065146	-139.333026	827.713204	576.894118	-152.144696	948.870574	808.1843249999999	-458.185947	1043.523402	739.4996609999999	-441.2061	1034.596643	620.43355	-424.300491	800.862259	357.544445	-222.396934	741.001339	298.714663	-178.096081	709.010272	196.5505	-245.033649	1057.790858	436.699964	-356.834769	966.788483	397.729219	-417.441018	938.756786	284.58055	-351.554155	568.9198689999999	129.010466	-263.983207	784.543393	68.017803	-272.795389	729.049212	50.543139	-170.849188	788.952537	236.196068	-337.0924	957.188565	96.74924	-335.526255	904.350938	99.219318	-432.828505	906.719803	1475.597533	-449.599932	944.497289	1465.496179	-152.100728	1009.316375	1392.233612	-294.182091	881.28445	1502.945546	-292.150953	924.25879	1360.316456	-48.868153	860.638481	1301.343223	-38.043252	916.048044	1243.015893	5.199788	900.699272	1179.621682	42.893089	852.141767	1150.641638	-11.208479	809.080886	1390.50457	-523.75863	752.506046	1346.630623	-475.411366	757.724796	1310.288599	-557.719738	704.9925950000001	1242.246083	-580.727309	684.570056	1220.864556	-511.91995	1004.556638	1158.314951	-5.206758	1086.263696	1145.42434	-116.150508	1075.723242	1080.871907	-87.896747	819.020535	1204.949694	-567.854425	917.3439519999999	1125.163252	-493.096998	886.543259	1099.895361	-552.60864	
97	2.1	929.400783	991.036475	-410.857711	925.467093	995.507527	-170.164109	766.090776	1037.234133	-344.217716	761.914594	1036.904354	-244.86254	845.303758	755.2591650000001	-121.456662	891.581048	665.62729	-140.908927	814.962858	581.576541	-152.859813	951.040258	815.703317	-459.357538	1045.834584	747.7531320000001	-441.391626	1037.200999	627.767883	-424.100741	784.00818	362.511454	-222.137827	723.160613	304.49267	-178.15442	691.970445	201.301868	-244.633992	1067.763531	441.97804	-356.784226	980.11968	395.466894	-417.464649	961.564315	280.57418	-351.073704	552.759903	136.000293	-264.574637	765.499849	67.76942200000001	-273.45324	709.151359	50.800598	-171.144099	816.18505	218.964066	-335.519761	996.899584	95.825981	-335.606657	942.701742	92.853127	-432.02882	905.824917	1479.900017	-450.475299	947.057639	1471.170974	-154.148048	1010.542124	1396.962723	-296.641547	882.302047	1507.128728	-293.560491	927.6555980000001	1366.884936	-49.926345	864.936832	1307.685869	-37.970312	921.264045	1249.749929	4.559448	906.371865	1186.021944	42.557855	857.79927	1156.490146	-11.415099	805.546233	1397.298365	-523.217202	750.009494	1353.631492	-473.78117	752.589783	1318.131331	-556.8263940000001	698.12536	1250.925398	-578.958334	678.863682	1229.866429	-509.639183	1010.355604	1166.979361	-6.208203	1091.373536	1156.582838	-117.579923	1082.101002	1091.562143	-90.55135799999999	811.584591	1212.123772	-569.7182299999999	912.042871	1133.034596	-496.855246	878.236367	1105.293886	-553.8368	
98	2.11	930.674739	996.254272	-410.87483	926.058171	998.40121	-170.48231	767.366267	1042.85468	-345.085223	763.025333	1041.618973	-245.284847	839.065652	759.3738059999999	-122.532745	882.236058	668.689005	-142.262155	802.660598	586.868802	-153.31273	952.555986	822.424986	-460.583517	1047.391304	754.766258	-441.231138	1038.50922	633.994065	-423.641363	767.894801	368.201977	-222.125324	705.85792	310.870128	-178.036968	675.851988	206.774742	-244.266367	1076.423167	446.282721	-357.109231	993.102117	392.090143	-417.628745	984.067907	276.58289	-350.632796	537.494157	143.719416	-265.05372	746.719607	67.42577300000001	-273.936905	689.419291	51.057189	-171.458778	844.381138	201.757471	-333.440373	1036.323923	96.83347500000001	-335.966537	981.187564	88.251919	-431.659062	905.118677	1484.147611	-451.194548	949.669731	1476.589975	-156.19074	1011.793807	1401.643433	-299.094873	883.5328919999999	1511.296866	-295.040631	931.141079	1373.178784	-50.927968	868.816333	1313.693963	-38.191538	925.792365	1256.337964	4.046294	911.4508949999999	1192.345035	42.334416	862.834074	1162.214019	-11.544016	802.4450900000001	1404.005335	-522.566924	748.098536	1360.421057	-472.037218	748.123928	1325.748331	-555.802206	692.092412	1259.298191	-577.211638	674.137839	1238.35295	-507.495688	1015.417324	1175.273414	-7.07778	1095.76068	1167.11685	-118.865157	1087.558672	1101.743954	-92.996227	804.864876	1218.876319	-571.460451	906.9262649999999	1140.311595	-500.420527	870.848821	1110.614774	-554.583784	
